#!OML:ASF F:\VICON\USERDATA\INSTALL\rory3\rory3.ASF
:FULLY-SPECIFIED
:DEGREES
20
root -5.816094465324976 17.87250378654035 3.2266470194977654 4.10940802286413 34.799497145552166 -8.380862156362099
lfemur -0.9044407285586935 20.06828991129238 6.886177923407414
ltibia 34.992490804912855
lfoot 14.357594966881754 9.468981232608794
ltoes -33.44768892178315
rfemur -29.446390799410487 20.413785368535635 23.929295555366835
rtibia 29.640194217784078
rfoot 0.44836649040675525 26.919086360500785
rtoes 36.47959072993428
lowerback 1.7760801261308536 -9.45051962385271 -13.962788107436428
upperback -1.444695048270093 -12.867589389937063 -4.538549487274253
thorax -0.5650764008591764 -6.217599653332024 2.8588373650933936
lowerneck -4.880320413071508 22.39058769091513 1.7560026615989157
upperneck 13.719806378346007 32.64028807190857 -13.040789839713533
head 7.539864097321548 14.827487876608414 -1.2252521424673914
lclavicle 1.1054455446666094e-14 -4.850046279841878e-15
lhumerus 115.3749864917297 -39.31209454400964 45.80840532338657
lradius 39.45200321361828
lwrist 5.129896011956756
lhand -23.65559406345521 1.4024083804859213
lfingers 7.12502
lthumb -177.18999405853967 211.3639908489809
rclavicle 1.1054455446666094e-14 -4.850046279841878e-15
rhumerus 31.67620420515603 -29.837285493441524 -51.63760996611035
rradius 107.92998705775791
rwrist 1.14255433738197
rhand -61.38869265783609 21.165698256595885
rfingers 7.12502
rthumb -33.472892671158746 -5.733542652733945
21
root -5.850529496974241 17.882638653931767 3.0476502036964255 -0.3718049997070523 36.49998007986036 -12.997370697388376
lfemur -5.1376943350944355 20.906244101705227 6.506205280934464
ltibia 37.485580845784575
lfoot 6.485408703426245 10.932707680475996
ltoes -37.91071274268565
rfemur -29.053933854831325 19.68251398480097 25.76619888925246
rtibia 28.774202423884276
rfoot -3.906963176952214 24.946183986005735
rtoes 39.18872764751871
lowerback 1.59876556179512 -9.283928053857759 -13.830502991498424
upperback -1.6032769030124099 -12.648262699356078 -4.688972250333203
thorax -0.1290789150537135 -6.134037362427243 3.226424217292807
lowerneck -6.482994205192636 20.893362801322183 1.1107473920927213
upperneck 12.870162190894732 30.434866019280378 -12.192401354520904
head 7.682883388423471 13.811771193963498 -1.2056986613000842
lclavicle 1.129316855783915e-14 -4.647422996642567e-15
lhumerus 112.04378255316288 -37.8707961748624 41.34316094639573
lradius 38.550774650054564
lwrist -0.08150747646332768
lhand -23.61294439867974 -0.9001645896165176
lfingers 7.12502
lthumb -177.14299396827514 104.45370541986392
rclavicle 1.1293168557839151e-14 -4.647422996642566e-15
rhumerus 31.87286278613354 -26.462245260484412 -57.109935212189356
rradius 106.05222881417026
rwrist 1.8110693912720777
rhand -64.20782354741658 28.153084945114365
rfingers 7.12502
rthumb -36.17395128695189 1.1078732271121243
22
root -5.880194698958489 17.891053279387876 3.0163295243951156 -1.1951780413948825 38.14034187858032 -14.542670701175126
lfemur -6.8806036596845015 21.949113585152215 6.719288164864774
ltibia 37.96845954104134
lfoot 5.098851714036307 11.292280554539602
ltoes -38.076665933887725
rfemur -29.63504777859831 18.889033755654836 26.147657822274155
rtibia 28.782475405499575
rfoot -4.225589005914298 24.990665244533353
rtoes 37.10108951001178
lowerback 2.373173766582611 -9.329155028690472 -13.524043098115133
upperback -1.112606285350786 -12.765664132887569 -4.4051975824350915
thorax -0.13399506108293147 -6.211712772404075 3.4826845641053596
lowerneck -6.7366786240994205 21.332519591867833 1.1976683846748486
upperneck 13.08496734386682 30.997866405988265 -12.016445754171222
head 7.759307616453942 14.061739742257009 -1.138709346040087
lclavicle 1.2438530772311583e-14 -3.69363447507188e-15
lhumerus 113.07279427540035 -38.45964866487654 41.1265034917659
lradius 38.01996849486593
lwrist 0.06271866314487973
lhand -21.8815909970176 -0.2788430024469566
lfingers 7.12502
lthumb -175.47404821814678 90.4282405114468
rclavicle 1.2438530772311585e-14 -3.69363447507188e-15
rhumerus 31.93243197797061 -26.390884405071677 -57.49925872688501
rradius 106.25994109628658
rwrist -0.2507895567886447
rhand -64.59447621414279 28.383459898770425
rfingers 7.12502
rthumb -36.54180603236907 1.3529727396231888
23
root -5.915882031452629 17.89215261821906 2.928858737910616 -2.5705772390852815 39.53399288936639 -16.614259583739624
lfemur -8.917578163345741 22.932243152467116 6.717923603160414
ltibia 38.55663340096092
lfoot 3.499433354719697 11.380548254418006
ltoes -37.73396069223718
rfemur -30.318995284936044 17.337288777508636 26.4424909400868
rtibia 28.469081595449563
rfoot -4.815072173755585 24.339807031937838
rtoes 34.61603396925613
lowerback 3.104738622632804 -9.34726403327542 -13.248571521094984
upperback -0.7513168466582378 -12.849629967033557 -4.225831577804632
thorax -0.1795271400977705 -6.258037077032244 3.645207080911176
lowerneck -6.9457471326595845 21.483782518026352 1.2261513435369205
upperneck 13.27286558251612 31.11456697314527 -11.810619421827857
head 7.836157129300958 14.100104862599474 -1.0777401734204575
lclavicle 1.2716967933252843e-14 -3.460892011690625e-15
lhumerus 113.08244941627574 -39.019302228549236 40.437151890624605
lradius 37.17221080628489
lwrist -0.13615139770329954
lhand -20.274500336516585 0.610598555559557
lfingers 7.12502
lthumb -173.92689297927078 86.37527414372099
rclavicle 1.2716967933252843e-14 -3.460892011690625e-15
rhumerus 31.979205988274945 -26.276879414079747 -58.65343209892305
rradius 105.34965236128203
rwrist -2.4884995924467823
rhand -64.97951187968728 28.529638767156797
rfingers 7.12502
rthumb -36.909813369308424 1.4867054183074906
24
root -5.959600868711536 17.88524312987401 2.749367641638128 -3.770354459835289 41.89551582937165 -18.734667848966183
lfemur -11.817584801156546 23.68730890867663 6.212641867734562
ltibia 38.7556089306017
lfoot 1.5781390252079728 10.900567457755223
ltoes -37.17323772095492
rfemur -31.294589920905906 15.117705568490624 26.41551718062107
rtibia 27.917212293527246
rfoot -5.362277967687833 23.037588470024986
rtoes 30.56557034146722
lowerback 3.8834557218320827 -9.344281386243939 -12.954749183879496
upperback -0.2471325849606325 -13.006907895762126 -3.8409636962879596
thorax -0.14294911671098554 -6.411841344589499 3.9581691633444587
lowerneck -7.2009883510041135 21.14933080822066 1.303989116283176
upperneck 13.760094548324055 30.701732525042672 -11.769102821227293
head 7.992391153898126 13.891553732130651 -1.083680430142742
lclavicle 1.2319833446767685e-14 -3.791573492683277e-15
lhumerus 112.35502175651925 -41.142149831676434 40.204827370601166
lradius 35.94379919441917
lwrist 0.4127836932266451
lhand -18.401716910004307 1.8906414288556235
lfingers 7.12502
lthumb -172.1217922479713 95.79062508800791
rclavicle 1.2319833446767685e-14 -3.791573492683277e-15
rhumerus 30.45310571216999 -26.043485395002943 -60.88959066635759
rradius 104.24310021944792
rwrist -5.48293241566017
rhand -65.15978053793694 27.793203450435513
rfingers 7.12502
rthumb -37.08038982505552 0.7613470796109887
25
root -6.015074140838756 17.88112631222935 2.5403173591988564 -2.8004316316363713 45.47263027952154 -18.892750843822185
lfemur -15.090861941549036 24.367149736883896 5.188271868413056
ltibia 38.822052130884174
lfoot -0.21396165280345159 10.830532785840976
ltoes -35.11107907497313
rfemur -32.32532698656195 12.68960725381193 26.11307445730972
rtibia 27.50171818750632
rfoot -5.972547540600093 20.660367161006185
rtoes 25.92685996383898
lowerback 4.620177266363348 -9.3299896378504 -12.311975702745833
upperback 0.4254956823547822 -13.041595465013714 -3.1522834524735965
thorax 0.1339491401868096 -6.50016001732649 4.400334728755255
lowerneck -7.494885147174628 20.713920091163384 1.4998207610335155
upperneck 14.404496148793744 30.261995493200132 -11.936555407522428
head 8.20575596416488 13.63840786615233 -1.167382016207731
lclavicle 1.2598547268907495e-14 -3.564209691371916e-15
lhumerus 110.86737969963593 -43.19018998311183 40.776109127793426
lradius 34.36388745898775
lwrist 0.4471643598797428
lhand -16.18296824118491 3.3474570803810177
lfingers 7.12502
lthumb -169.9840185256318 102.92676553047097
rclavicle 1.2598547268907496e-14 -3.564209691371916e-15
rhumerus 29.289778187297713 -24.89993770157512 -63.12431586636162
rradius 103.15605973120657
rwrist -9.01118992776255
rhand -65.31843107091589 26.99789692618548
rfingers 7.12502
rthumb -37.2340608239115 0.0016323819727510624
26
root -6.065744975284326 17.872887692131442 2.2879928084324814 -2.376862595342871 50.314566933102874 -19.685665085654165
lfemur -19.002378255654712 24.54080262761704 3.483384028715867
ltibia 38.54217321308335
lfoot -1.746250391833419 10.32222345400108
ltoes -32.44099996074189
rfemur -33.46981302115519 9.943921116710362 25.380922382463414
rtibia 27.246932296145186
rfoot -6.814538577417766 16.98898934489887
rtoes 19.885433976725206
lowerback 5.2369652502505195 -9.264144363638932 -11.424006315499142
upperback 1.2217643408320997 -12.97773803409699 -2.285844475454939
thorax 0.540656018813233 -6.574152938257315 4.831552884369338
lowerneck -8.024300914966533 19.8088740115651 1.9652510241886598
upperneck 15.179065893291384 29.222495065470753 -12.201469789813
head 8.487515043235387 13.093794970077992 -1.33960812471504
lclavicle 1.2591918380947881e-14 -3.575362691863665e-15
lhumerus 108.71403416013325 -45.5561621894668 42.06154828355963
lradius 32.78896123490618
lwrist 0.5798250488219807
lhand -14.45143269779569 4.952331613412731
lfingers 7.12502
lthumb -168.31548907227437 100.2529262184601
rclavicle 1.2591918380947881e-14 -3.575362691863666e-15
rhumerus 27.504268153081657 -23.806007299951876 -65.41798535152824
rradius 101.72121118050151
rwrist -12.249240472755794
rhand -65.0703517361414 25.956188482380064
rfingers 7.12502
rthumb -36.99566100759506 -1.0254315638705638
